<svg width="800" height="800" viewBox="0 0 800 800" fill="none" xmlns="http://www.w3.org/2000/svg">
<path fill-rule="evenodd" clip-rule="evenodd" d="M375.697 0.953635C301.867 6.41246 236.538 28.6061 176.359 68.6717C154.127 83.4722 139.217 95.99 115.717 119.578C69.1653 166.309 35.6026 221.852 17.5898 281.969C15.6034 288.596 13.3917 295.825 12.6721 298.034C11.5018 301.629 9.73276 309.768 4.46413 335.787C0.468788 355.517 -1.15059 396.982 0.871223 427.766C1.9594 444.329 3.59487 461.494 4.50437 465.912C5.41386 470.329 6.57447 476.113 7.08476 478.764C18.7392 539.325 49.1387 603.589 89.9952 654.039C104.138 671.503 133.005 699.938 149.953 713.096C169.636 728.381 196.419 746.306 198.059 745.294C198.814 744.828 199.432 709.83 199.432 667.522V590.597L190.642 580.256C159.315 543.404 136.605 495.273 127.594 446.634C122.285 417.974 124.575 356.947 131.785 334.983C132.51 332.774 134.314 326.63 135.795 321.328C144.557 289.958 164.773 252.016 186.798 225.604C196.119 214.426 221.909 188.793 223.832 188.793C224.578 188.793 225.188 317.518 225.188 474.849V760.902L235.754 765.685C258.67 776.054 312.016 792.831 322.072 792.831C324.87 792.831 324.999 779.991 325.39 463.904L325.796 134.976L336.89 132.211C342.992 130.69 348.605 129.829 349.365 130.298C350.127 130.767 350.746 280.778 350.746 464.369V797.589L355.173 798.751C362.903 800.78 434.26 800.203 449.744 797.986C540.658 784.969 615.634 748.855 678.903 687.606C704.482 662.846 729.814 631.106 744.985 604.811C768.497 564.065 784.33 522.796 793.346 478.764C794.431 473.462 795.993 465.872 796.814 461.895C801.123 441.053 801.041 360.621 796.691 339.04C795.796 334.599 793.9 325.184 792.479 318.115C775.8 235.177 727.971 154.008 663.189 98.6985C643.734 82.0875 606.285 55.4552 602.385 55.4552C600.646 55.4552 600.254 69.6213 600.254 132.403V209.35L610.8 221.964C623.752 237.452 636.261 256.169 645.015 273.151C656.388 295.215 658.171 299.915 669.406 337.393C677.686 365.018 677.72 433.342 669.467 463.502C658.228 504.575 645.521 532.076 624.19 561.493C612.095 578.171 581.193 611.298 577.729 611.298C576.647 611.298 576.108 516.573 576.108 326.344C576.108 100.299 575.692 41.0627 574.096 39.8032C566.646 33.9251 503.929 12.6055 481.536 8.33864L476.305 7.34101V335.909V664.476L470.701 666.814C467.619 668.099 461.642 669.326 457.421 669.543L449.744 669.935L449.348 341.409C449.129 160.72 448.949 10.6263 448.946 7.86955L448.939 2.8541L430.83 1.78097C420.871 1.18979 408.737 0.441166 403.867 0.116657C398.998 -0.207852 386.321 0.168066 375.697 0.953635Z" fill="white"/>
</svg>
